<svg xmlns="http://www.w3.org/2000/svg" width="720" height="340" font-family="sans-serif" font-size="11">
<rect width="100%" height="100%" fill="white"/>
<text x="56" y="18" font-size="13" font-weight="bold">Reliability, development split, all skills</text>
<line x1="56" y1="296" x2="430" y2="296" stroke="#333"/>
<line x1="56" y1="34" x2="56" y2="296" stroke="#333"/>
<text x="243.0" y="332" text-anchor="middle">Decider probability</text>
<text x="14" y="165.0" text-anchor="middle" transform="rotate(-90 14 165.0)">share required</text>
<text x="56.0" y="312" text-anchor="middle">0.00</text>
<text x="50" y="300.0" text-anchor="end">0</text>
<line x1="56" y1="296.0" x2="430" y2="296.0" stroke="#eee"/>
<text x="130.8" y="312" text-anchor="middle">0.20</text>
<text x="50" y="247.6" text-anchor="end">0.2</text>
<line x1="56" y1="243.6" x2="430" y2="243.6" stroke="#eee"/>
<text x="205.6" y="312" text-anchor="middle">0.40</text>
<text x="50" y="195.2" text-anchor="end">0.4</text>
<line x1="56" y1="191.2" x2="430" y2="191.2" stroke="#eee"/>
<text x="280.4" y="312" text-anchor="middle">0.60</text>
<text x="50" y="142.8" text-anchor="end">0.6</text>
<line x1="56" y1="138.8" x2="430" y2="138.8" stroke="#eee"/>
<text x="355.2" y="312" text-anchor="middle">0.80</text>
<text x="50" y="90.39999999999998" text-anchor="end">0.8</text>
<line x1="56" y1="86.39999999999998" x2="430" y2="86.39999999999998" stroke="#eee"/>
<text x="430.0" y="312" text-anchor="middle">1.00</text>
<text x="50" y="38.0" text-anchor="end">1</text>
<line x1="56" y1="34.0" x2="430" y2="34.0" stroke="#eee"/>
<line x1="56.0" y1="296.0" x2="430.0" y2="34.0" stroke="#999" stroke-dasharray="4 3"/>
<polyline points="72.1,296.0 107.9,296.0 146.5,296.0 186.5,296.0 220.6,296.0 262.6,165.0 292.7,258.6 333.9,112.6 376.0,92.2 404.5,34.0" fill="none" stroke="#1f77b4" stroke-width="2"/>
<circle cx="72.1" cy="296.0" r="2.5" fill="#1f77b4"/>
<circle cx="107.9" cy="296.0" r="2.5" fill="#1f77b4"/>
<circle cx="146.5" cy="296.0" r="2.5" fill="#1f77b4"/>
<circle cx="186.5" cy="296.0" r="2.5" fill="#1f77b4"/>
<circle cx="220.6" cy="296.0" r="2.5" fill="#1f77b4"/>
<circle cx="262.6" cy="165.0" r="2.5" fill="#1f77b4"/>
<circle cx="292.7" cy="258.6" r="2.5" fill="#1f77b4"/>
<circle cx="333.9" cy="112.6" r="2.5" fill="#1f77b4"/>
<circle cx="376.0" cy="92.2" r="2.5" fill="#1f77b4"/>
<circle cx="404.5" cy="34.0" r="2.5" fill="#1f77b4"/>
<rect x="442" y="34" width="10" height="10" fill="#1f77b4"/>
<text x="456" y="43">observed</text>
</svg>